<?xml version="1.0" encoding="UTF-8" standalone="no"?><!DOCTYPE svg PUBLIC "-//W3C//DTD SVG 1.1//EN" "http://www.w3.org/Graphics/SVG/1.1/DTD/svg11.dtd"><svg width="100%" height="100%" viewBox="0 0 10071 8405" version="1.1" xmlns="http://www.w3.org/2000/svg" xmlns:xlink="http://www.w3.org/1999/xlink" xml:space="preserve" xmlns:serif="http://www.serif.com/" style="fill-rule:evenodd;clip-rule:evenodd;stroke-linejoin:round;stroke-miterlimit:2;"><rect id="Artboard1" x="0" y="0" width="10069.446" height="8402.779" style="fill:none;"/><path d="M5021.305,7767.445c1070.294,0 1659.328,-984.819 2133.156,-2040.248c167.233,-371.63 280.581,-667.076 479.403,-823.16c241.559,-50.17 403.218,-83.617 403.218,-126.354c0,-29.73 -16.723,-42.737 -46.454,-42.737c-124.496,0 -265.715,33.447 -419.942,128.212c-577.884,131.929 -1919.468,395.786 -1919.468,1211.513c0,228.552 128.212,338.183 254.566,338.183c57.603,0 79.9,-20.44 74.326,-52.028c-111.489,0 -215.545,-146.794 -215.545,-334.467c0,-691.232 1023.84,-945.798 1698.349,-1087.017c-211.829,163.517 -451.53,449.672 -707.955,916.068c-353.048,641.062 -732.111,1867.44 -1726.221,1867.44c-410.651,0 -646.636,-174.666 -646.636,-492.41c0,-406.935 377.204,-733.969 854.749,-733.969c66.893,0 113.347,13.007 209.971,40.879c42.737,13.007 68.752,-14.865 78.042,-44.596c-107.773,-26.014 -247.134,-50.17 -375.346,-50.17c-531.431,0 -943.94,299.162 -943.94,685.657c0,392.07 336.325,639.203 815.728,639.203Z" style="fill:#cdd9cc;fill-opacity:0.7;fill-rule:nonzero;"/><path d="M719.133,3705.833c1276.667,0 2165,-1861.667 2868.333,-2498.333c91.667,-83.333 156.667,-130 210,-130c165,0 -158.333,411.667 -525,1041.667c-111.667,181.667 -388.333,641.667 -388.333,898.333c0,88.333 105,188.333 170,188.333c100,-8.333 215,-85 338.333,-196.667c693.333,-626.667 1801.667,-2483.333 2830,-2483.333c318.333,0 483.333,168.333 483.333,361.667c0,33.333 -3.333,61.667 -15,91.667c6.667,6.667 31.667,15 40,-1.667c11.667,-21.667 15,-65 15,-98.333c0,-213.333 -180,-393.333 -516.667,-393.333c-1276.667,0 -2165,1861.667 -2868.333,2498.333c-91.667,83.333 -156.667,130 -210,130c-321.667,0 913.333,-1505 913.333,-1940c0,-43.333 -26.667,-91.667 -60,-126.667c103.333,-11.667 175,-25 201.667,-41.667c30,-18.333 31.667,-78.333 0,-100c-208.333,101.667 -1190,143.333 -1906.667,296.667c-443.333,95 -780,281.667 -780,538.333c0,93.333 55,148.333 128.333,148.333c51.667,0 81.667,-18.333 90,-46.667c-60,0 -95,-60 -95,-143.333c0,-228.333 285,-366.667 663.333,-456.667c431.667,-101.667 983.333,-138.333 1383.333,-168.333c-45,31.667 -86.667,66.667 -133.333,108.333c-693.333,626.667 -1801.667,2483.333 -2830,2483.333c-318.333,0 -483.333,-168.333 -483.333,-361.667c0,-33.333 3.333,-61.667 15,-91.667c-6.667,-6.667 -31.667,-15 -40,1.667c-11.667,21.667 -15,65 -15,98.333c0,213.333 180,393.333 516.667,393.333Z" style="fill:#cdd9cc;fill-opacity:0.7;fill-rule:nonzero;"/><g><path d="M3781.591,1934.797c27.312,8.608 53.569,28.727 66.565,60.355l12.373,43.618l-137.783,553.769c-23.979,115.267 -67.477,227.2 -85.149,315.826c-19.063,95.652 -43.354,165.742 14.124,193.054l295.276,0c-62.273,-29.878 -106.946,-86.948 -130.205,-185.141c-5.851,-52.778 -1.966,-97.714 8.057,-134.426c15.898,-58.293 46.951,-95.388 78.243,-109.704c2.47,-1.127 4.916,-2.086 7.338,-2.877c26.856,-9.232 56.782,-3.357 84.07,13.356c28.511,17.457 54.024,46.495 70.57,82.679c1.535,3.357 3.021,6.858 4.46,10.527l32.995,116.394c25.849,92.031 10.695,173.272 -31.7,209.216l414.691,0c-72.704,-17.768 -123.132,-137.639 -150.875,-233.075l-3.669,-12.949l-0.12,-0.408l-260.891,-920.215l-288.37,-0Zm227.536,723.779c-34.314,-20.982 -72.632,-28.103 -107.881,-15.922c-3.381,1.151 -6.666,2.47 -9.855,3.933c-37.143,17.001 -73.543,58.748 -92.295,123.108c-5.275,-154.232 19.375,-369.515 79.682,-666.59l165.359,583.215c-10.934,-10.886 -22.732,-20.214 -35.009,-27.744l0,-0Z" style="fill:#cdd9cc;fill-rule:nonzero;"/><path d="M4845.599,1934.821l-181.041,0l-55.391,436.392c268.156,46.927 156.774,-147.302 133.874,-289.809c-13.836,-86.132 -3.933,-118.24 77.236,-118.24l25.346,0l0,935.921c0,132.627 -54.384,189.17 -113.085,202.31l465.095,0c-58.7,-13.14 -113.085,-69.683 -113.085,-202.31l0,-935.969l25.322,0c81.193,0 91.072,32.108 77.236,118.24c-22.9,142.531 -134.306,336.736 133.874,289.809l-55.391,-436.392l-419.943,0l-0.048,0.048Z" style="fill:#cdd9cc;fill-rule:nonzero;"/><path d="M5628.258,1934.797c27.312,8.608 53.569,28.727 66.565,60.355l12.373,43.618l-137.783,553.769c-23.979,115.267 -67.477,227.2 -85.149,315.826c-19.063,95.652 -43.354,165.742 14.124,193.054l295.276,0c-62.273,-29.878 -106.946,-86.948 -130.205,-185.141c-5.851,-52.778 -1.966,-97.714 8.057,-134.426c15.898,-58.293 46.951,-95.388 78.243,-109.704c2.47,-1.127 4.916,-2.086 7.338,-2.877c26.856,-9.232 56.782,-3.357 84.07,13.356c28.511,17.457 54.024,46.495 70.57,82.679c1.535,3.357 3.021,6.858 4.46,10.527l32.995,116.394c25.849,92.031 10.695,173.272 -31.7,209.216l414.691,0c-72.704,-17.768 -123.132,-137.639 -150.875,-233.075l-3.669,-12.949l-0.12,-0.408l-260.891,-920.215l-288.37,-0Zm227.536,723.779c-34.314,-20.982 -72.632,-28.103 -107.881,-15.922c-3.381,1.151 -6.666,2.47 -9.855,3.933c-37.143,17.001 -73.543,58.748 -92.295,123.108c-5.275,-154.232 19.375,-369.515 79.682,-666.59l165.359,583.215c-10.934,-10.886 -22.732,-20.214 -35.009,-27.744l0,-0Z" style="fill:#cdd9cc;fill-rule:nonzero;"/><path d="M6620.585,2899.109l-0.048,6.163l-0.12,6.067l-0.192,5.947l-0.264,5.827l-0.336,5.731l-0.432,5.611l-0.504,5.515l-0.576,5.395l-0.623,5.299l-0.719,5.179l-0.767,5.084l-0.839,4.988c-0.288,1.655 -0.599,3.261 -0.911,4.892l-0.959,4.772l-1.031,4.676l-1.103,4.58l-1.151,4.484l-1.223,4.388l-1.271,4.268l-1.343,4.196l-1.391,4.1l-1.439,3.981l-1.511,3.909l-1.559,3.813l-1.607,3.717l-1.655,3.621l-1.702,3.525l-1.75,3.429l-1.798,3.357c-0.599,1.079 -1.223,2.158 -1.846,3.237l-1.894,3.165l-1.942,3.069l-1.99,2.997l-2.014,2.901l-2.062,2.806l-2.11,2.734l-2.134,2.662l-2.182,2.566l-2.23,2.47l-2.254,2.398l-2.278,2.326l-2.326,2.23l-2.35,2.158l-2.374,2.086l-2.422,1.99l-2.446,1.918l-2.47,1.846l-2.494,1.774l-2.518,1.702l-2.542,1.607l-2.566,1.535l-2.59,1.463l-2.614,1.391l-2.614,1.319l-2.638,1.247l-2.662,1.175l-2.662,1.103l-2.686,1.055l-2.71,0.983l-2.71,0.911l-2.71,0.839l-2.734,0.791l-2.734,0.719l-2.758,0.647l796.028,0l0,-436.416c-44.265,169.171 -165.359,401.839 -300.672,408.025l-231.396,0l0,1.75l-47.119,0l-7.29,-12.349c87.211,-28.919 134.69,-79.49 142.459,-151.763l0,-773.608c0,-132.627 54.384,-189.17 113.085,-202.31l-465.095,0c58.7,13.14 113.085,69.683 113.085,202.31l0,762.026Z" style="fill:#cdd9cc;fill-rule:nonzero;"/><path d="M7979.262,1934.797l-465.095,0c42.203,9.448 82.176,41.34 101.311,107.809l126.753,0.647c-66.685,29.59 -105.004,97.139 -114.979,202.598l0,653.281c0,132.627 -54.384,189.17 -113.085,202.31l465.095,0c-42.203,-9.448 -82.176,-41.34 -101.311,-107.809l-126.753,-0.647c66.685,-29.614 105.004,-97.139 114.979,-202.598l0,-653.305c0,-132.627 54.384,-189.17 113.085,-202.31l0,0.024Z" style="fill:#cdd9cc;fill-rule:nonzero;"/><path d="M8353.258,1934.797c27.312,8.608 53.569,28.727 66.565,60.355l12.373,43.618l-137.783,553.769c-23.979,115.267 -67.477,227.2 -85.149,315.826c-19.063,95.652 -43.354,165.742 14.124,193.054l295.276,0c-62.273,-29.878 -106.946,-86.948 -130.205,-185.141c-5.851,-52.778 -1.966,-97.714 8.057,-134.426c15.898,-58.293 46.951,-95.388 78.243,-109.704c2.47,-1.127 4.916,-2.086 7.338,-2.877c26.856,-9.232 56.782,-3.357 84.07,13.356c28.511,17.457 54.024,46.495 70.57,82.679c1.535,3.357 3.021,6.858 4.46,10.527l32.995,116.394c25.849,92.031 10.695,173.272 -31.7,209.216l414.691,0c-72.704,-17.768 -123.132,-137.639 -150.875,-233.075l-3.669,-12.949l-0.12,-0.408l-260.891,-920.215l-288.37,-0Zm227.536,723.779c-34.314,-20.982 -72.632,-28.103 -107.881,-15.922c-3.381,1.151 -6.666,2.47 -9.855,3.933c-37.143,17.001 -73.543,58.748 -92.295,123.108c-5.275,-154.232 19.375,-369.515 79.682,-666.59l165.359,583.215c-10.934,-10.886 -22.732,-20.214 -35.009,-27.744l0,-0Z" style="fill:#cdd9cc;fill-rule:nonzero;"/></g><path d="M4853.958,5415.35c33.542,0 59.792,-16.042 88.958,-16.042c-62.708,-105 -107.917,-256.667 -129.792,-420c262.5,-132.708 503.125,-377.708 503.125,-615.417c0,-58.333 -26.25,-119.583 -113.75,-119.583c-27.708,0 -37.917,8.75 -33.542,23.333c70,0 90.417,56.875 90.417,121.042c0,221.667 -214.375,434.583 -450.625,555.625c-5.833,-62.708 -10.208,-129.792 -10.208,-193.958c0,-161.875 23.333,-322.292 62.708,-463.75c293.125,-151.667 580.417,-290.208 580.417,-460.833c0,-64.167 -58.333,-106.458 -147.292,-106.458c-258.125,0 -530.833,293.125 -660.625,651.875c-236.25,134.167 -431.667,285.833 -431.667,481.25c0,163.333 113.75,226.042 252.292,226.042c42.292,0 87.5,-5.833 132.708,-16.042c58.333,231.875 188.125,352.917 266.875,352.917Zm-396.667,-371.875c-113.75,0 -217.292,-45.208 -217.292,-191.042c0,-172.083 167.708,-310.625 377.708,-434.583c-39.375,121.042 -62.708,250.833 -62.708,377.708c0,87.5 8.75,166.25 23.333,233.333c-43.75,10.208 -83.125,14.583 -121.042,14.583Zm417.083,-800.625c87.5,-281.458 243.542,-488.542 420,-488.542c64.167,0 106.458,30.625 106.458,78.75c0,144.375 -253.75,269.792 -526.458,409.792Z" style="fill:#cdd9cc;fill-rule:nonzero;"/><g><path d="M7050.449,7121.987c13.116,-0.024 26.089,-0.576 39.182,-1.391c297.626,-20.598 416.753,-273.24 416.753,-581.92c0,-230.941 -66.685,-430.493 -224.874,-525.018c-49.828,-30.405 -107.21,-48.917 -172.169,-55.535c-19.447,-1.99 -39.445,-2.925 -59.396,-2.877l-1.007,0c-19.95,-0.048 -39.973,0.887 -59.396,2.877c-64.935,6.642 -122.316,25.154 -172.169,55.535c-158.213,94.525 -224.874,294.077 -224.874,525.018c0,308.681 119.127,561.322 416.753,581.92c13.116,0.815 26.065,1.367 39.182,1.391l2.014,0Zm-1.007,-934.506l-31.556,315.61l-112.365,18.799l112.365,21.749l31.556,346.136l31.556,-346.136l107.857,-21.749l-107.857,-18.799l-31.556,-315.61Zm0,906.115c-294.173,-3.933 -315.778,-1094.398 0,-1109.84c308.824,7.122 294.173,1105.907 0,1109.84l-0,0Z" style="fill:#cdd9cc;fill-rule:nonzero;"/><path d="M7710.833,5955.341c58.7,13.14 113.085,69.683 113.085,202.31l0,761.978c0,132.627 -54.384,189.17 -113.085,202.31l796.004,0l0,-436.416c-44.241,169.171 -165.335,401.839 -300.648,408.025l-143.37,0l0,-259.092c73.879,-36.496 132.771,-104.716 180.705,-185.285c12.397,-20.838 24.075,-42.515 35.057,-64.647c37.071,36.376 62.345,176.677 76.828,252.834l0,-601.871c-50.308,151.954 -135.577,459.532 -292.591,563.337l0,-815.115l143.37,0c135.313,6.187 256.383,238.854 300.648,408.025l0,-436.392l-796.004,0Z" style="fill:#cdd9cc;fill-rule:nonzero;"/></g></svg>